<?xml version="1.0" standalone="no"?>
<!DOCTYPE svg PUBLIC "-//W3C//DTD SVG 20010904//EN"
 "http://www.w3.org/TR/2001/REC-SVG-20010904/DTD/svg10.dtd">
<svg version="1.0" xmlns="http://www.w3.org/2000/svg"
 width="3977.000000pt" height="1043.000000pt" viewBox="0 0 3977.000000 1043.000000"
 preserveAspectRatio="xMidYMid meet">

<g transform="translate(0.000000,1043.000000) scale(0.100000,-0.100000)"
fill="#000000" stroke="none">
<path d="M3275 10139 c-99 -8 -176 -18 -555 -75 -461 -69 -927 -274 -1300
-570 -109 -87 -308 -286 -390 -389 -285 -361 -466 -766 -541 -1209 -27 -158
-36 -476 -20 -652 44 -463 179 -908 436 -1429 298 -606 610 -1071 1382 -2058
341 -437 507 -643 948 -1182 181 -221 1104 -1274 1245 -1419 270 -278 517
-445 761 -511 128 -35 291 -44 421 -21 141 24 156 31 78 40 -325 35 -633 222
-981 597 -184 198 -1095 1245 -1243 1427 -77 97 -224 277 -325 401 -215 264
-701 887 -701 899 0 7 842 263 861 262 3 0 50 -56 104 -125 54 -69 100 -125
104 -125 9 1 178 212 239 298 29 43 101 154 159 247 58 94 107 171 108 173 1
1 71 -19 156 -46 l154 -48 0 -564 c0 -519 1 -570 18 -625 25 -81 60 -138 99
-163 32 -20 32 -20 69 -1 47 23 91 86 118 166 52 156 118 660 122 932 2 132
-9 126 158 74 79 -24 145 -43 146 -41 2 2 -46 183 -106 403 -179 655 -169 618
-152 603 9 -7 42 -52 74 -100 72 -106 109 -150 171 -198 37 -30 59 -61 106
-153 33 -63 83 -150 113 -193 66 -97 188 -219 258 -259 l52 -30 -5 -68 c-4
-37 -24 -175 -45 -305 -65 -389 -75 -540 -46 -676 14 -64 52 -147 76 -161 33
-21 108 34 143 104 29 58 42 113 61 271 25 192 46 268 91 327 25 33 25 33 62
18 76 -31 116 -97 189 -310 59 -174 132 -323 178 -363 64 -57 114 -35 134 57
27 128 8 244 -119 716 -33 121 -66 256 -73 300 l-13 80 126 125 c134 132 204
227 279 377 37 74 41 90 41 157 0 71 -1 75 -31 100 -17 14 -41 26 -53 26 -38
0 -112 -75 -202 -206 -47 -69 -109 -147 -137 -175 -105 -104 -274 -155 -429
-130 -163 26 -279 113 -432 326 -44 61 -92 125 -108 143 -15 18 -39 55 -53 82
-14 28 -57 100 -97 162 -131 206 -167 311 -213 620 -14 95 -33 198 -41 228
-39 136 -147 281 -280 376 -185 132 -500 221 -689 195 -141 -20 -224 -66 -340
-190 -197 -213 -278 -286 -362 -329 -142 -74 -197 -83 -528 -92 -271 -8 -325
-14 -399 -42 -28 -11 -28 -13 -23 -66 18 -170 214 -254 557 -239 309 14 502
80 793 270 65 42 122 77 128 77 11 0 11 -456 0 -580 l-8 -85 -193 -328 c-106
-180 -191 -329 -189 -331 2 -1 51 -17 109 -35 57 -17 106 -34 109 -36 20 -21
-248 -545 -278 -545 -19 0 -488 647 -733 1010 -228 337 -458 712 -553 899 -40
80 -168 411 -204 526 -146 479 -168 948 -61 1329 71 253 198 466 394 661 67
66 160 148 209 182 158 111 398 222 570 263 192 46 609 11 896 -75 415 -124
830 -367 1040 -608 28 -32 102 -133 163 -225 150 -222 248 -344 387 -482 185
-183 378 -300 588 -358 90 -24 114 -26 293 -27 164 0 211 3 295 22 55 12 145
27 200 33 132 16 297 59 445 116 l120 47 -21 31 c-42 63 -108 214 -130 296
-40 157 -38 373 7 538 7 23 5 23 -64 -12 -206 -104 -359 -150 -497 -149 -195
1 -307 84 -512 379 -417 598 -1038 1057 -1738 1284 -367 119 -758 167 -1130
139z m1972 -4895 c-3 -3 -12 -4 -19 -1 -8 3 -5 6 6 6 11 1 17 -2 13 -5z m-37
-8 c0 -2 -7 -7 -16 -10 -8 -3 -12 -2 -9 4 6 10 25 14 25 6z m-63 -118 c-3 -7
-5 -2 -5 12 0 14 2 19 5 13 2 -7 2 -19 0 -25z"/>
<path d="M8695 8779 c53 -86 98 -207 119 -319 20 -104 20 -295 1 -397 -8 -43
-15 -79 -15 -80 0 -2 14 -3 31 -3 50 0 271 -48 372 -80 50 -16 157 -62 237
-101 80 -39 173 -82 207 -95 l62 -23 110 78 c206 148 427 335 502 426 l41 50
-33 28 c-119 100 -424 282 -608 363 -304 134 -702 224 -988 224 l-82 0 44 -71z"/>
<path d="M15894 8200 c-84 -26 -114 -122 -56 -180 53 -52 171 -52 223 -1 52
52 47 120 -12 162 -33 23 -110 33 -155 19z"/>
<path d="M22290 8188 c-62 -32 -81 -80 -54 -135 23 -46 72 -73 134 -73 62 0
111 27 134 73 16 34 17 42 4 75 -16 44 -81 82 -138 82 -20 0 -56 -10 -80 -22z"/>
<path d="M23473 8199 c-43 -13 -83 -62 -83 -103 0 -63 67 -116 147 -116 49 0
117 34 131 66 48 103 -64 191 -195 153z"/>
<path d="M14800 8171 c-123 -25 -210 -118 -210 -225 0 -24 -3 -26 -40 -26
l-40 0 0 -90 c0 -65 3 -90 13 -91 6 -1 23 -2 37 -2 l25 -2 5 -225 5 -225 120
0 120 0 5 225 5 225 40 2 c22 1 46 2 53 2 9 1 12 26 12 91 l0 90 -55 0 c-62 0
-70 12 -32 48 14 13 36 22 56 22 l32 0 -3 93 -3 92 -55 2 c-30 0 -71 -2 -90
-6z"/>
<path d="M25539 8116 c-2 -2 -3 -191 -1 -420 l2 -416 115 0 c62 0 116 4 119 9
3 4 6 192 6 417 l1 409 -119 3 c-65 1 -120 1 -123 -2z"/>
<path d="M12409 8079 c-5 -3 -8 -170 -7 -400 l3 -394 120 0 120 0 3 131 3 131
107 6 c172 10 260 48 319 139 25 38 28 52 28 128 0 76 -3 90 -27 127 -31 47
-74 83 -133 109 -33 15 -80 19 -284 23 -133 3 -247 3 -252 0z m420 -196 c12
-10 24 -34 27 -54 5 -29 1 -41 -19 -65 -24 -27 -29 -29 -104 -29 l-78 0 -3 83
-3 82 79 0 c61 0 85 -4 101 -17z"/>
<path d="M19319 8079 c-5 -3 -8 -169 -7 -400 l3 -394 114 -3 c85 -2 117 1 123
10 5 7 8 102 6 210 -1 109 0 200 3 202 2 3 41 -91 85 -207 l81 -212 101 -3
101 -3 14 28 c7 15 45 110 83 210 38 100 72 179 76 177 5 -3 8 -97 8 -210 l0
-205 123 3 122 3 3 398 c2 314 0 397 -10 397 -139 3 -290 1 -294 -3 -3 -3 -52
-115 -108 -248 -56 -134 -107 -244 -112 -246 -5 -2 -18 18 -28 45 -11 26 -33
76 -49 112 -16 36 -45 103 -64 150 -53 128 -83 190 -91 190 -91 4 -276 4 -283
-1z"/>
<path d="M16258 7998 l-3 -73 -42 -3 -43 -3 0 -90 0 -89 33 0 c17 0 37 -4 44
-8 7 -4 12 -57 15 -152 3 -165 12 -191 85 -246 33 -26 58 -34 125 -44 46 -7
101 -10 123 -8 l40 3 3 91 3 91 -57 6 c-32 3 -61 12 -66 19 -4 7 -7 65 -6 128
l3 115 60 0 60 0 0 90 0 90 -62 3 -63 3 0 74 0 75 -125 0 -124 0 -3 -72z"/>
<path d="M4162 7905 c-88 -31 -140 -62 -196 -121 -167 -174 -153 -490 31 -693
132 -146 327 -180 508 -89 139 71 215 209 215 392 0 247 -131 458 -322 518
-80 24 -149 22 -236 -7z"/>
<path d="M13640 7920 c-56 -11 -86 -27 -128 -64 -21 -20 -42 -33 -46 -29 -3 3
-6 26 -6 50 l0 44 -122 -3 -123 -3 0 -315 0 -315 120 0 120 0 5 167 c5 159 6
168 29 192 29 31 77 46 149 46 l52 0 0 114 c0 63 -3 117 -7 119 -5 2 -24 0
-43 -3z"/>
<path d="M14010 7921 c-70 -16 -140 -54 -184 -101 -64 -68 -79 -108 -80 -215
-1 -80 2 -96 27 -145 34 -67 59 -94 113 -126 135 -79 330 -72 453 16 47 35
101 104 101 132 0 17 -10 18 -129 18 -84 0 -132 -4 -137 -11 -3 -6 -22 -18
-41 -26 -27 -11 -42 -12 -69 -3 -37 13 -74 53 -74 81 0 18 12 19 235 19 l235
0 0 60 c0 176 -128 295 -328 305 -48 2 -103 1 -122 -4z m171 -200 c16 -16 29
-34 29 -40 0 -7 -38 -11 -110 -11 -72 0 -110 4 -110 11 0 6 13 24 29 40 25 25
37 29 81 29 44 0 56 -4 81 -29z"/>
<path d="M15270 7921 c-103 -22 -206 -98 -241 -178 -43 -99 -33 -235 24 -320
62 -93 173 -143 316 -143 129 0 239 53 303 145 49 72 46 75 -97 75 -114 0
-129 -2 -156 -22 -46 -34 -105 -29 -141 11 -15 17 -28 40 -28 51 0 19 7 20
236 20 l237 0 -5 79 c-4 61 -10 88 -30 122 -62 105 -156 157 -296 164 -48 2
-103 1 -122 -4z m171 -200 c16 -16 29 -34 29 -40 0 -7 -38 -11 -110 -11 -72 0
-110 4 -110 11 0 6 13 24 29 40 25 25 37 29 81 29 44 0 56 -4 81 -29z"/>
<path d="M18051 7919 c-48 -9 -116 -46 -146 -79 l-20 -22 -5 48 -5 49 -123 3
-122 3 2 -318 3 -318 120 0 120 0 5 172 c5 158 7 174 26 193 25 25 79 39 152
40 l52 0 0 114 c0 63 -3 117 -7 119 -5 2 -28 0 -52 -4z"/>
<path d="M18385 7921 c-141 -37 -225 -157 -225 -319 0 -84 16 -142 55 -201 87
-131 292 -163 422 -65 l32 24 3 -37 3 -38 120 0 120 0 3 318 2 317 -125 0
-125 0 0 -35 c0 -38 -10 -44 -31 -19 -38 46 -176 76 -254 55z m225 -206 c101
-52 69 -223 -45 -240 -112 -17 -188 87 -139 191 9 19 28 41 43 49 34 19 105
19 141 0z"/>
<path d="M21805 7925 c-5 -2 -27 -6 -47 -10 -20 -3 -60 -21 -88 -40 l-50 -34
0 40 0 39 -125 0 -125 0 2 -317 3 -318 120 0 120 0 5 198 5 199 33 29 c26 24
41 29 82 29 41 0 56 -5 82 -29 l33 -29 5 -199 5 -198 120 0 120 0 0 220 c0
188 -3 227 -18 267 -20 52 -78 110 -131 132 -35 15 -133 28 -151 21z"/>
<path d="M22861 7920 c-100 -21 -196 -93 -236 -175 -27 -58 -32 -187 -10 -255
19 -57 70 -120 125 -155 116 -72 312 -75 425 -5 44 27 104 94 121 136 27 64
27 64 -112 64 l-125 0 -26 -30 c-21 -25 -32 -30 -69 -30 -35 0 -50 6 -69 26
-48 51 -44 166 7 217 25 26 34 29 71 24 29 -4 48 -14 62 -31 20 -25 23 -26
148 -26 95 0 127 3 127 13 0 30 -50 115 -85 146 -83 73 -232 107 -354 81z"/>
<path d="M24205 7926 c-5 -2 -22 -7 -37 -10 -14 -3 -47 -22 -72 -41 l-46 -35
0 40 0 41 -122 -3 -123 -3 0 -465 0 -465 122 -3 123 -3 2 192 3 192 30 -25
c48 -41 101 -58 177 -58 118 0 216 58 268 159 44 87 46 217 4 316 -21 52 -87
120 -141 145 -42 20 -162 36 -188 26z m67 -225 c31 -28 33 -34 33 -95 0 -60
-3 -68 -31 -97 -38 -38 -94 -48 -146 -26 -91 38 -104 178 -20 229 16 11 48 18
79 18 44 0 58 -5 85 -29z"/>
<path d="M24853 7921 c-49 -13 -119 -57 -152 -98 -52 -63 -73 -134 -69 -233 8
-190 123 -310 299 -310 75 0 123 15 175 55 l33 25 3 -37 3 -38 120 0 120 0 3
318 2 317 -125 0 -125 0 0 -35 c0 -38 -10 -44 -31 -19 -38 46 -175 76 -256 55z
m227 -206 c38 -20 60 -63 60 -119 0 -58 -43 -112 -97 -122 -46 -9 -107 10
-132 42 -45 57 -31 161 27 197 34 21 104 22 142 2z"/>
<path d="M15832 7603 l3 -318 100 -3 c55 -2 110 0 123 3 l22 5 -2 313 -3 312
-123 3 -122 3 2 -318z"/>
<path d="M16750 7706 c0 -191 2 -221 20 -269 37 -98 130 -157 249 -157 69 0
111 13 169 51 24 16 45 29 48 29 2 0 4 -18 4 -40 l0 -41 123 3 122 3 0 315 0
315 -123 0 -122 0 -3 -185 c-2 -209 -8 -229 -74 -257 -45 -18 -93 -10 -130 22
l-28 23 -5 199 -5 198 -122 3 -123 3 0 -215z"/>
<path d="M20492 7698 c3 -217 4 -225 29 -279 15 -32 42 -68 61 -82 98 -75 257
-76 354 -2 18 14 35 25 38 25 3 0 6 -18 6 -40 l0 -41 123 3 122 3 3 318 2 317
-125 0 -125 0 0 -187 c0 -169 -2 -191 -20 -220 -39 -65 -161 -65 -200 0 -18
29 -20 51 -20 220 l0 187 -126 0 -125 0 3 -222z"/>
<path d="M22250 7913 c-5 -116 2 -619 8 -625 5 -5 58 -7 118 -6 l109 3 3 318
2 317 -120 0 c-66 0 -120 -3 -120 -7z"/>
<path d="M23412 7603 l3 -318 120 0 120 0 3 318 2 317 -125 0 -125 0 2 -317z"/>
<path d="M39095 7296 c-149 -107 -283 -204 -300 -216 -16 -12 -37 -26 -45 -30
-8 -5 -12 -11 -10 -13 3 -3 146 -8 319 -12 262 -7 315 -5 322 6 5 8 9 114 9
237 0 174 -3 222 -13 222 -7 0 -134 -87 -282 -194z"/>
<path d="M10904 7360 c-125 -110 -507 -540 -540 -607 -17 -34 -20 -74 -26
-358 -3 -176 -11 -349 -17 -385 -6 -36 -11 -72 -11 -82 0 -10 142 -120 377
-293 207 -152 382 -279 388 -281 16 -6 99 232 145 413 103 414 98 834 -16
1182 -38 117 -129 312 -191 409 l-40 64 -69 -62z"/>
<path d="M24675 6791 c-404 -90 -697 -378 -800 -785 -71 -279 -51 -629 50
-877 202 -498 736 -758 1270 -619 270 71 524 279 653 536 146 289 171 710 61
1044 -100 308 -350 563 -654 668 -155 54 -418 69 -580 33z m375 -526 c116 -59
208 -187 251 -346 25 -93 36 -322 21 -434 -45 -330 -246 -540 -474 -495 -105
20 -185 77 -251 178 -84 128 -117 260 -117 474 0 255 66 448 194 566 79 73
134 93 246 88 59 -2 87 -9 130 -31z"/>
<path d="M29670 6791 c-421 -93 -718 -399 -815 -841 -22 -100 -31 -388 -16
-502 36 -269 133 -481 299 -651 155 -159 310 -248 518 -298 127 -31 362 -31
488 0 209 51 366 141 520 298 215 221 316 518 303 898 -7 224 -40 370 -118
528 -138 280 -378 478 -677 559 -113 30 -383 35 -502 9z m380 -527 c68 -37
160 -137 198 -215 121 -250 101 -666 -43 -884 -65 -97 -139 -150 -243 -175
-109 -25 -233 20 -325 119 -65 70 -107 154 -138 271 -29 113 -33 375 -6 490
49 210 158 365 292 413 76 27 196 19 265 -19z"/>
<path d="M12544 6772 c-8 -5 -124 -390 -146 -482 -2 -12 12 -16 67 -20 l70 -5
0 -535 c0 -531 0 -535 -22 -580 -29 -59 -58 -91 -113 -126 -42 -27 -52 -29
-146 -29 -87 0 -107 3 -148 25 -83 42 -146 141 -146 228 0 19 -4 23 -17 19
-10 -3 -54 -16 -98 -30 -180 -56 -445 -137 -451 -137 -16 0 11 -94 51 -175
106 -218 312 -373 578 -431 98 -22 346 -23 443 -1 305 69 544 266 623 514 40
125 42 178 39 988 l-3 780 -285 2 c-157 2 -290 0 -296 -5z"/>
<path d="M13353 6763 c-19 -49 -140 -479 -136 -485 2 -5 33 -8 68 -8 l64 0 4
-562 c4 -585 5 -602 49 -724 31 -86 93 -180 167 -255 120 -120 233 -183 405
-227 138 -34 364 -36 500 -3 328 80 549 282 622 571 18 71 19 122 19 890 l0
815 -292 3 -292 2 -3 -787 -3 -788 -23 -50 c-48 -105 -124 -156 -243 -163 -97
-6 -166 16 -225 70 -84 78 -78 12 -84 913 l-5 800 -293 3 c-272 2 -293 1 -299
-15z"/>
<path d="M15882 6771 c-7 -4 -19 -30 -27 -57 -26 -92 -63 -219 -225 -764 -89
-300 -173 -582 -186 -627 -13 -46 -36 -121 -49 -168 -46 -156 -76 -259 -100
-340 -13 -44 -37 -126 -54 -182 -17 -56 -31 -107 -31 -113 0 -7 98 -9 308 -8
l307 3 29 105 c15 58 33 117 38 133 l10 27 330 0 c304 0 329 -1 335 -17 4 -10
21 -70 39 -133 l31 -115 299 -3 c164 -1 304 0 311 2 8 4 8 17 -4 53 -8 26 -25
84 -38 128 -13 44 -63 211 -110 370 -116 387 -110 368 -138 465 -14 47 -64
216 -112 375 -48 160 -98 328 -111 375 -14 47 -32 108 -40 135 -9 28 -19 64
-24 80 -26 91 -80 267 -85 275 -8 12 -684 13 -703 1z m383 -817 c12 -49 48
-188 79 -309 32 -121 64 -245 72 -275 25 -98 41 -90 -187 -90 l-201 0 5 28 c4
26 64 258 128 497 16 61 37 140 46 178 9 37 21 66 26 64 6 -2 20 -43 32 -93z"/>
<path d="M17421 6762 c-8 -16 -141 -473 -141 -486 0 -3 214 -7 476 -8 l475 -3
-59 -80 c-191 -259 -343 -463 -474 -640 -81 -110 -202 -273 -268 -363 l-120
-162 0 -255 0 -255 850 0 850 0 0 255 0 255 -495 2 -495 3 256 355 c141 195
343 477 449 625 l193 270 70 245 c38 135 68 248 65 253 -2 4 -368 7 -813 7
-762 0 -810 -1 -819 -18z"/>
<path d="M19254 6772 c-9 -5 -137 -431 -147 -486 -1 -7 27 -13 68 -16 l70 -5
3 -877 2 -878 835 0 835 0 0 255 0 255 -540 0 -540 0 0 175 0 175 438 2 437 3
3 244 c2 189 -1 246 -10 253 -7 4 -204 8 -438 8 l-425 -1 -3 195 -2 196 457 2
457 3 7 30 c4 17 34 125 68 240 33 116 61 216 61 223 0 9 -169 12 -812 12
-447 0 -818 -4 -824 -8z"/>
<path d="M21107 6773 c-4 -3 -7 -514 -7 -1135 l0 -1128 293 2 292 3 0 1130 0
1130 -286 3 c-157 1 -288 -1 -292 -5z"/>
<path d="M21983 6768 c-11 -15 -15 -28 -79 -253 -25 -88 -50 -173 -55 -190
-16 -53 -14 -55 61 -55 l70 0 2 -877 3 -878 293 -3 292 -2 0 385 0 386 67 -3
67 -3 68 -119 c37 -66 134 -238 215 -383 l147 -263 333 0 c211 0 333 4 333 10
0 5 -109 184 -243 397 -134 214 -246 393 -250 400 -5 7 20 26 66 51 215 118
337 348 337 636 0 251 -89 465 -257 615 -91 83 -197 129 -340 150 -109 16
-1118 15 -1130 -1z m984 -531 c65 -41 95 -97 101 -182 6 -91 -10 -146 -56
-197 -57 -63 -78 -68 -272 -68 l-170 0 0 241 0 241 178 -4 c174 -3 178 -4 219
-31z"/>
<path d="M26974 6745 c-7 -19 -14 -38 -14 -44 0 -5 -7 -31 -15 -57 -50 -164
-103 -359 -99 -366 3 -4 34 -8 70 -8 l64 0 2 -877 3 -878 425 -3 c445 -3 540
3 665 40 281 82 518 322 625 635 61 179 87 451 61 645 -50 377 -244 688 -521
836 -181 97 -292 112 -841 112 l-410 0 -15 -35z m747 -485 c160 -30 298 -163
377 -362 25 -61 44 -213 38 -298 -23 -346 -234 -591 -498 -578 l-63 3 -3 600
c-1 330 0 610 3 623 5 19 12 22 49 22 24 0 68 -5 97 -10z"/>
<path d="M31972 6753 c-10 -25 -41 -130 -62 -208 -4 -16 -21 -78 -39 -136 -17
-59 -31 -114 -31 -123 0 -12 14 -16 68 -18 l67 -3 3 -878 2 -877 293 2 292 3
3 367 2 367 293 3 c325 5 352 9 487 75 109 53 221 168 277 283 53 110 73 190
80 322 21 397 -194 739 -517 824 -57 15 -136 18 -636 21 l-571 4 -11 -28z
m985 -515 c79 -52 113 -119 113 -223 0 -111 -48 -201 -124 -236 -35 -16 -67
-19 -208 -19 l-168 0 0 256 0 256 173 -4 c168 -3 173 -4 214 -30z"/>
<path d="M33855 6768 c-3 -7 -4 -517 -3 -1133 l3 -1120 293 -3 292 -2 0 1135
0 1135 -290 0 c-223 0 -292 -3 -295 -12z"/>
<path d="M35231 6763 c-7 -15 -81 -260 -187 -623 -14 -47 -32 -107 -40 -135
-9 -27 -19 -63 -24 -80 -5 -16 -16 -55 -25 -85 -9 -30 -20 -68 -25 -85 -5 -16
-16 -55 -25 -85 -9 -30 -20 -68 -25 -85 -5 -16 -76 -257 -158 -535 -82 -278
-151 -512 -153 -520 -4 -13 35 -15 306 -15 l309 0 23 85 c13 47 29 105 36 130
l13 45 324 2 c179 2 330 0 336 -5 7 -4 27 -63 45 -132 l34 -125 308 -3 c242
-2 307 0 307 10 0 7 -30 112 -66 233 -58 197 -85 285 -128 435 -8 25 -69 230
-136 455 -67 226 -128 430 -135 455 -7 25 -52 176 -100 335 -48 160 -89 299
-93 310 -3 11 -10 23 -16 27 -6 4 -165 8 -353 8 -316 0 -343 -1 -352 -17z
m397 -830 c18 -71 43 -171 57 -223 48 -181 105 -407 105 -418 0 -9 -54 -12
-198 -12 -109 0 -201 2 -204 5 -2 3 8 53 24 112 71 271 152 582 160 621 5 23
13 42 17 42 4 0 22 -57 39 -127z"/>
<path d="M36725 6768 c-4 -14 -22 -75 -35 -123 -4 -16 -29 -101 -54 -189 -25
-87 -46 -164 -46 -172 0 -9 19 -14 68 -16 l67 -3 5 -585 6 -585 27 -80 c74
-211 230 -376 440 -464 101 -42 173 -60 292 -72 429 -45 826 167 948 506 47
131 48 168 45 1005 l-3 785 -290 0 -290 0 -5 -790 -5 -790 -27 -56 c-49 -98
-114 -140 -230 -147 -98 -6 -172 16 -232 69 -85 75 -80 21 -86 919 l-5 795
-293 3 c-229 2 -293 0 -297 -10z"/>
<path d="M38727 6773 c-4 -3 -7 -514 -7 -1135 l0 -1128 293 2 292 3 0 1130 0
1130 -286 3 c-157 1 -288 -1 -292 -5z"/>
<path d="M5898 5729 c-116 -27 -231 -120 -282 -229 -29 -60 -31 -73 -31 -175
0 -104 2 -114 34 -183 71 -150 200 -226 346 -202 219 36 360 236 326 461 -18
116 -47 177 -116 246 -84 84 -167 108 -277 82z"/>
<path d="M11392 2885 l3 -975 13955 0 13955 0 3 975 2 975 -13960 0 -13960 0
2 -975z m24869 700 c-1 -55 -5 -103 -9 -107 -11 -10 -332 -138 -348 -138 -11
0 -14 20 -14 95 l0 96 73 33 c39 18 99 46 132 61 33 15 78 35 100 46 66 31 68
27 66 -86z m-2261 47 c99 -49 109 -194 17 -251 -76 -47 -179 -36 -237 24 -32
33 -35 42 -35 93 0 68 21 102 80 132 49 25 127 26 175 2z m3507 -9 c94 -69 85
-199 -17 -250 -134 -68 -286 32 -251 165 11 41 50 84 91 101 41 18 146 8 177
-16z m-4457 -263 c0 -113 4 -180 10 -180 6 0 10 4 10 8 0 19 93 73 151 88 174
45 332 -52 378 -231 6 -23 11 -157 11 -317 l0 -278 -145 0 -145 0 0 239 c0
260 -5 290 -56 330 -37 29 -121 29 -158 0 -53 -42 -56 -58 -56 -324 l0 -245
-145 0 -145 0 0 545 0 545 145 0 145 0 0 -180z m-20786 114 c3 -9 6 -157 6
-330 0 -345 3 -363 58 -403 23 -16 45 -21 94 -21 56 0 68 4 99 30 55 44 59 76
59 429 l0 311 145 0 145 0 0 -330 c0 -203 -4 -349 -11 -382 -33 -155 -126
-258 -284 -314 -70 -25 -250 -25 -320 0 -110 38 -190 108 -235 203 -42 89 -50
173 -50 502 0 169 3 311 7 314 3 4 68 7 144 7 116 0 138 -2 143 -16z m7054
-96 l3 -97 72 -3 72 -3 3 -117 3 -118 -76 0 -75 0 0 -160 c0 -184 -2 -180 95
-180 l56 0 -3 -122 -3 -123 -90 -3 c-171 -5 -275 46 -325 160 -21 47 -24 73
-29 238 l-6 185 -48 3 -48 3 3 117 3 117 48 3 47 3 0 93 c0 51 3 96 7 100 4 3
70 5 147 4 l141 -3 3 -97z m16070 0 l3 -97 72 -3 72 -3 3 -117 3 -117 -73 -3
-73 -3 -3 -150 c-3 -143 -2 -151 19 -167 14 -12 39 -18 75 -18 l55 0 -3 -122
-3 -123 -80 -3 c-133 -6 -236 26 -289 89 -54 64 -60 90 -65 299 l-6 195 -50 5
-50 5 0 115 0 115 50 5 50 5 3 98 3 98 142 -3 142 -3 3 -97z m-21696 -120 c26
-11 67 -42 92 -68 l44 -47 42 42 c23 24 67 55 98 71 50 25 68 28 142 28 128
-1 212 -46 276 -145 47 -74 55 -136 52 -421 l-3 -263 -142 0 -143 0 -2 245
c-2 180 -6 251 -16 268 -44 77 -192 83 -234 9 -9 -15 -14 -95 -18 -272 l-5
-250 -145 0 -145 0 -5 257 -5 258 -26 26 c-50 50 -171 41 -207 -14 -15 -22
-18 -62 -22 -277 l-5 -250 -145 0 -145 0 0 410 0 410 145 0 145 0 3 -46 3 -46
29 27 c34 32 90 61 140 71 52 11 148 0 202 -23z m1803 17 c91 -24 148 -72 193
-165 l27 -55 3 -302 3 -303 -145 0 -146 0 0 245 c0 266 -3 282 -56 324 -39 31
-117 29 -159 -3 -49 -37 -55 -76 -55 -335 l0 -231 -145 0 -145 0 2 413 3 412
143 3 142 3 0 -51 c0 -27 4 -50 8 -50 5 0 19 12 33 26 42 45 129 80 204 83 17
1 57 -6 90 -14z m890 0 c259 -68 386 -349 271 -600 -107 -235 -437 -308 -669
-148 -166 115 -208 412 -83 587 102 144 297 209 481 161z m1867 4 c112 -23
212 -90 267 -178 42 -69 61 -142 61 -236 0 -159 -58 -275 -175 -350 -69 -44
-128 -64 -210 -71 -226 -19 -399 91 -464 295 -14 44 -14 208 0 252 72 223 280
338 521 288z m1833 -4 c121 -32 213 -105 261 -209 28 -61 48 -188 36 -231 l-8
-30 -267 -3 c-293 -3 -284 0 -252 -62 35 -68 119 -82 178 -30 l35 30 146 0
c145 0 146 0 146 -22 0 -30 -51 -117 -91 -158 -82 -81 -171 -115 -304 -115
-146 1 -229 36 -318 134 -65 73 -90 143 -95 267 -5 121 12 188 68 271 95 142
281 205 465 158z m1029 0 c66 -17 135 -61 167 -106 l22 -31 24 31 c67 85 195
132 308 113 123 -20 193 -72 244 -182 26 -55 26 -56 29 -352 l3 -298 -145 0
-146 0 0 235 c0 250 -5 280 -49 319 -27 24 -116 32 -151 14 -13 -7 -35 -29
-47 -47 -22 -33 -23 -41 -23 -277 l0 -244 -145 0 -145 0 0 235 c0 251 -5 280
-50 320 -17 16 -36 20 -85 20 -49 0 -68 -4 -85 -20 -45 -40 -50 -69 -50 -320
l0 -235 -145 0 -145 0 0 415 0 415 145 0 145 0 0 -45 c0 -47 9 -56 30 -30 25
30 69 55 121 69 70 19 103 19 173 1z m1618 -14 c155 -74 238 -259 209 -473
-20 -147 -91 -257 -203 -315 -46 -23 -65 -27 -143 -27 -100 0 -142 15 -202 74
-18 18 -33 28 -33 24 0 -5 -2 -115 -3 -244 l-2 -235 -145 0 -145 0 0 605 0
605 145 0 145 0 5 -50 c3 -32 7 -44 12 -33 9 21 74 65 125 84 54 20 176 12
235 -15z m833 14 c75 -19 97 -30 161 -76 108 -79 159 -198 152 -359 -3 -84 -8
-105 -35 -161 -49 -99 -93 -144 -186 -189 -255 -122 -549 -9 -623 240 -21 70
-20 214 1 277 72 214 296 327 530 268z m2851 -21 c29 -13 68 -42 88 -64 20
-22 39 -40 42 -40 4 0 24 18 46 40 22 22 65 52 96 67 48 23 70 27 137 27 111
-1 178 -28 242 -98 83 -91 88 -115 88 -446 l0 -285 -145 0 -145 0 -5 250 c-5
275 -8 287 -65 311 -44 18 -86 18 -130 0 -57 -24 -60 -36 -65 -311 l-5 -250
-145 0 -145 0 -5 250 c-4 177 -9 257 -18 272 -28 49 -122 69 -181 39 -58 -31
-60 -42 -63 -313 l-3 -248 -145 0 -145 0 0 410 0 410 145 0 145 0 5 -45 c3
-29 8 -40 13 -32 15 22 90 65 137 79 62 18 161 8 226 -23z m1343 1 c29 -16 61
-40 71 -53 l19 -23 3 48 3 48 145 0 145 0 0 -410 0 -410 -145 0 -145 0 -5 50
-5 49 -16 -25 c-9 -13 -41 -38 -70 -54 -49 -27 -63 -30 -144 -30 -78 1 -97 4
-143 28 -73 38 -129 98 -164 174 -103 227 -26 520 161 609 57 27 91 33 167 30
55 -2 82 -9 123 -31z m1502 4 c60 -26 127 -97 153 -165 18 -44 20 -81 24 -346
l4 -298 -146 0 -146 0 0 228 c0 125 -5 245 -10 267 -13 60 -60 95 -126 95 -37
0 -59 -6 -78 -21 -53 -42 -56 -58 -56 -324 l0 -245 -145 0 -145 0 0 415 0 416
143 -3 142 -3 6 -55 c3 -30 6 -50 7 -43 3 21 99 83 153 98 68 19 153 12 220
-16z m844 16 c192 -50 308 -205 308 -410 0 -125 -36 -216 -119 -301 -46 -47
-76 -65 -174 -105 -56 -22 -241 -17 -309 9 -105 41 -174 104 -227 209 -28 55
-29 64 -29 188 0 124 1 133 29 190 35 71 112 150 178 184 98 50 234 64 343 36z
m1786 -2 c31 -10 69 -33 92 -55 22 -21 42 -38 44 -38 1 0 3 23 3 50 l0 51 143
-3 142 -3 0 -410 0 -410 -142 -3 -143 -3 0 51 c0 27 -3 50 -6 50 -3 0 -14 -10
-24 -23 -10 -13 -42 -36 -72 -52 -48 -27 -61 -30 -143 -29 -94 0 -133 13 -209
68 -40 29 -102 127 -120 189 -100 355 137 666 435 570z m2759 7 c131 -25 232
-121 255 -243 l7 -37 -131 0 -130 0 -16 30 c-19 36 -78 57 -121 43 -22 -7 -30
-17 -32 -40 -3 -26 2 -32 35 -46 21 -9 61 -21 88 -27 157 -32 252 -86 289
-164 21 -45 21 -147 0 -192 -25 -53 -103 -116 -170 -139 -80 -27 -236 -27
-314 -1 -51 18 -102 46 -140 78 -53 44 -113 169 -88 184 18 11 272 6 276 -6 2
-6 14 -23 26 -36 44 -52 162 -37 154 19 -4 29 -53 52 -172 81 -117 28 -179 59
-220 109 -30 37 -31 43 -31 131 0 88 1 93 33 136 77 105 234 152 402 120z
m1525 -5 c111 -29 213 -106 264 -197 93 -169 54 -403 -89 -532 -161 -145 -458
-136 -612 17 -155 155 -156 444 -3 600 107 108 283 152 440 112z m980 -145 l0
-155 -85 -5 c-166 -10 -180 -35 -180 -327 l0 -194 -142 3 -143 3 0 410 0 410
143 3 142 3 0 -66 c0 -36 1 -65 3 -65 2 0 24 20 50 44 49 45 99 74 152 87 61
15 60 18 60 -151z m964 143 c28 -9 69 -31 90 -50 l40 -34 3 43 3 43 145 0 145
0 0 -410 0 -410 -145 0 -145 0 -3 43 -3 43 -31 -26 c-66 -56 -106 -69 -203
-69 -78 0 -97 4 -143 27 -132 68 -212 216 -212 392 0 290 220 486 459 408z
m-21002 -218 c35 -121 67 -235 71 -254 4 -19 12 -36 17 -38 6 -2 42 113 81
255 l71 257 144 3 c79 1 149 0 156 -2 9 -4 3 -32 -23 -108 -96 -275 -237 -685
-241 -700 -5 -16 -22 -18 -184 -18 -117 0 -180 4 -185 11 -3 6 -37 101 -76
212 -38 111 -96 281 -130 377 -33 96 -63 187 -65 203 l-5 28 153 -3 153 -3 63
-220z m7903 -14 c0 -260 5 -290 56 -330 38 -30 121 -29 159 1 51 40 55 66 55
328 l0 240 145 0 145 0 0 -415 0 -415 -145 0 -145 0 0 50 c0 28 -2 50 -4 50
-3 0 -18 -12 -33 -26 -58 -54 -119 -76 -208 -76 -161 0 -259 77 -301 237 -14
53 -21 575 -7 588 3 4 69 7 145 7 l138 0 0 -239z m5761 197 c6 -24 15 -54 20
-68 4 -14 22 -77 39 -140 17 -63 35 -126 40 -140 4 -14 16 -52 26 -85 10 -34
20 -53 23 -45 3 8 37 128 76 265 l70 250 153 3 c121 2 152 0 152 -11 0 -7 -29
-98 -65 -203 -36 -104 -86 -247 -110 -319 -25 -71 -58 -166 -73 -210 l-28 -80
-182 -3 c-100 -1 -182 -1 -182 0 0 3 -135 399 -194 568 -61 174 -84 249 -78
255 3 3 72 5 153 5 l148 0 12 -42z m3274 -373 l0 -410 -145 0 -145 0 -3 400
c-1 220 0 406 3 413 3 10 39 12 147 10 l143 -3 0 -410z m3490 0 l0 -410 -142
-3 -143 -3 0 416 0 416 143 -3 142 -3 0 -410z m1403 -152 c95 -62 94 -176 -2
-247 -42 -31 -159 -30 -204 2 -42 30 -62 70 -62 124 0 88 68 147 170 148 44 0
65 -6 98 -27z m-14648 -27 c0 -11 -35 -111 -124 -351 l-22 -60 -92 -3 c-70 -2
-92 0 -92 10 0 7 12 78 26 158 28 160 44 254 44 258 0 1 59 2 130 2 103 0 130
-3 130 -14z"/>
<path d="M16225 3028 c-64 -23 -95 -76 -95 -163 0 -103 48 -165 127 -165 91 0
142 61 143 168 0 74 -29 128 -83 153 -48 21 -51 21 -92 7z"/>
<path d="M18110 3029 c-107 -43 -133 -220 -44 -298 28 -25 43 -31 83 -31 88 0
135 60 134 172 0 58 -4 72 -28 104 -26 34 -78 65 -107 63 -7 0 -24 -5 -38 -10z"/>
<path d="M19923 3049 c-31 -9 -83 -64 -83 -87 0 -15 236 -17 245 -3 11 19 -20
61 -60 81 -45 22 -54 23 -102 9z"/>
<path d="M22435 3015 c-56 -29 -70 -61 -70 -152 0 -82 0 -83 37 -119 31 -32
45 -38 90 -42 44 -3 59 0 87 20 88 60 97 204 17 277 -33 31 -117 39 -161 16z"/>
<path d="M23405 3026 c-88 -40 -119 -157 -69 -262 20 -43 59 -64 117 -64 82 0
130 61 130 166 0 121 -89 201 -178 160z"/>
<path d="M27644 3020 c-12 -5 -35 -25 -50 -46 -26 -33 -29 -45 -29 -109 1 -58
5 -77 24 -103 63 -90 199 -81 245 15 22 46 21 140 -2 182 -32 59 -122 88 -188
61z"/>
<path d="M29930 3022 c-57 -28 -80 -73 -80 -154 0 -112 43 -168 131 -168 66 0
112 40 129 111 23 93 -7 176 -74 209 -52 24 -62 25 -106 2z"/>
<path d="M31815 3020 c-75 -30 -107 -146 -65 -237 48 -107 200 -111 254 -7 43
81 16 198 -54 236 -36 19 -100 23 -135 8z"/>
<path d="M36015 3028 c-41 -15 -53 -26 -76 -69 -12 -25 -19 -58 -19 -96 1
-100 50 -164 126 -165 88 -1 144 63 144 165 0 91 -31 143 -99 166 -39 13 -37
13 -76 -1z"/>
<path d="M38044 3020 c-63 -25 -97 -120 -74 -208 19 -76 65 -112 144 -112 82
0 136 67 136 170 0 71 -26 121 -77 145 -34 16 -95 19 -129 5z"/>
</g>
</svg>
